<?xml version="1.0" encoding="UTF-8" standalone="no"?>
<!-- Created with Inkscape (http://www.inkscape.org/) -->

<svg
   width="200mm"
   height="200mm"
   viewBox="0 0 200 200"
   version="1.1"
   id="svg5"
   xml:space="preserve"
   inkscape:version="1.2.2 (732a01da63, 2022-12-09)"
   sodipodi:docname="main.svg"
   xmlns:inkscape="http://www.inkscape.org/namespaces/inkscape"
   xmlns:sodipodi="http://sodipodi.sourceforge.net/DTD/sodipodi-0.dtd"
   xmlns:xlink="http://www.w3.org/1999/xlink"
   xmlns="http://www.w3.org/2000/svg"
   xmlns:svg="http://www.w3.org/2000/svg"><sodipodi:namedview
     id="namedview7"
     pagecolor="#ffffff"
     bordercolor="#000000"
     borderopacity="0.25"
     inkscape:showpageshadow="2"
     inkscape:pageopacity="0.0"
     inkscape:pagecheckerboard="true"
     inkscape:deskcolor="#d1d1d1"
     inkscape:document-units="mm"
     showgrid="false"
     inkscape:zoom="0.74564394"
     inkscape:cx="509.62662"
     inkscape:cy="438.54712"
     inkscape:window-width="1920"
     inkscape:window-height="1017"
     inkscape:window-x="-8"
     inkscape:window-y="-8"
     inkscape:window-maximized="1"
     inkscape:current-layer="layer1" /><defs
     id="defs2" /><g
     inkscape:label="Layer 1"
     inkscape:groupmode="layer"
     id="layer1"><circle
       style="fill:#ffffff;stroke-width:0.308528"
       id="path436"
       cx="100.24194"
       cy="98.822594"
       r="59.790321" /><path
       id="path436-5"
       style="fill:#ffffff;stroke-width:0.467827"
       d="M 99.354659 8.6935262 A 90.661285 90.661285 0 0 0 8.6935262 99.354659 A 90.661285 90.661285 0 0 0 99.354659 190.01631 A 90.661285 90.661285 0 0 0 190.01631 99.354659 A 90.661285 90.661285 0 0 0 99.354659 8.6935262 z M 100.41919 23.241992 A 76.112899 76.112899 0 0 1 176.53238 99.354659 A 76.112899 76.112899 0 0 1 100.41919 175.46784 A 76.112899 76.112899 0 0 1 24.306527 99.354659 A 76.112899 76.112899 0 0 1 100.41919 23.241992 z " /></g></svg>
