<?xml version="1.0" encoding="UTF-8" standalone="no"?>
<!-- Created with Inkscape (http://www.inkscape.org/) -->

<svg
   width="200mm"
   height="200mm"
   viewBox="0 0 200 200"
   version="1.1"
   id="svg5"
   xml:space="preserve"
   inkscape:version="1.2.2 (732a01da63, 2022-12-09)"
   sodipodi:docname="mania.svg"
   xmlns:inkscape="http://www.inkscape.org/namespaces/inkscape"
   xmlns:sodipodi="http://sodipodi.sourceforge.net/DTD/sodipodi-0.dtd"
   xmlns:xlink="http://www.w3.org/1999/xlink"
   xmlns="http://www.w3.org/2000/svg"
   xmlns:svg="http://www.w3.org/2000/svg"><sodipodi:namedview
     id="namedview7"
     pagecolor="#ffffff"
     bordercolor="#000000"
     borderopacity="0.25"
     inkscape:showpageshadow="2"
     inkscape:pageopacity="0.0"
     inkscape:pagecheckerboard="true"
     inkscape:deskcolor="#d1d1d1"
     inkscape:document-units="mm"
     showgrid="false"
     inkscape:zoom="0.74564394"
     inkscape:cx="488.83922"
     inkscape:cy="346.00965"
     inkscape:window-width="1920"
     inkscape:window-height="1017"
     inkscape:window-x="-8"
     inkscape:window-y="-8"
     inkscape:window-maximized="1"
     inkscape:current-layer="layer1" /><defs
     id="defs2" /><g
     inkscape:label="Layer 1"
     inkscape:groupmode="layer"
     id="layer1"><path
       id="path629-9"
       style="fill:#ffffff;stroke-width:0.9336"
       d="M 101.48373 7.0967244 A 87.645164 87.645164 0 0 0 13.838949 94.742021 A 87.645164 87.645164 0 0 0 101.48373 182.38732 A 87.645164 87.645164 0 0 0 189.12902 94.742021 A 87.645164 87.645164 0 0 0 101.48373 7.0967244 z M 101.48373 22.709725 A 72.741936 72.741936 0 0 1 174.22606 95.451538 A 72.741936 72.741936 0 0 1 101.48373 168.19335 A 72.741936 72.741936 0 0 1 28.741915 95.451538 A 72.741936 72.741936 0 0 1 101.48373 22.709725 z " /><path
       id="rect984"
       style="fill:#ffffff;stroke-width:0.264583"
       d="M 100.78145 41.179915 A 7.9706483 7.6290321 0 0 0 92.810872 48.808907 A 7.9706483 7.6290321 0 0 0 92.817074 48.967554 L 92.790202 48.967554 L 92.790202 145.83864 L 92.842395 145.83864 A 7.9706483 7.6290321 0 0 0 100.79643 153.04647 A 7.9706483 7.6290321 0 0 0 108.75047 145.83864 L 108.75822 145.83864 L 108.75822 145.64279 A 7.9706483 7.6290321 0 0 0 108.767 145.41748 A 7.9706483 7.6290321 0 0 0 108.75822 145.0697 L 108.75822 48.967554 L 108.74582 48.967554 A 7.9706483 7.6290321 0 0 0 108.75202 48.808907 A 7.9706483 7.6290321 0 0 0 100.78145 41.179915 z " /><path
       id="rect984-3"
       style="fill:#ffffff;stroke-width:0.176873"
       d="M 131.11603 68.233561 A 7.9706483 7.6290321 0 0 0 123.15889 75.515804 L 123.12478 75.515804 L 123.12478 118.80618 L 123.17129 118.80618 A 7.9706483 7.6290321 0 0 0 123.15992 119.09454 A 7.9706483 7.6290321 0 0 0 131.1305 126.72353 A 7.9706483 7.6290321 0 0 0 139.10107 119.09454 A 7.9706483 7.6290321 0 0 0 139.09229 118.73539 L 139.09229 75.515804 L 139.07782 75.515804 A 7.9706483 7.6290321 0 0 0 131.11603 68.233561 z " /><path
       id="path1130"
       style="fill:#ffffff;stroke-width:0.176873"
       d="m 68.847584,68.233561 a 7.9706483,7.6290321 0 0 0 -7.95714,7.282243 h -0.03411 v 43.290376 h 0.04651 a 7.9706483,7.6290321 0 0 0 -0.01137,0.28836 7.9706483,7.6290321 0 0 0 7.97058,7.62899 7.9706483,7.6290321 0 0 0 7.97057,-7.62899 7.9706483,7.6290321 0 0 0 -0.0088,-0.35915 V 75.515804 h -0.01447 a 7.9706483,7.6290321 0 0 0 -7.96179,-7.282243 z" /></g></svg>
